<svg aria-hidden="true" style="position: absolute; width: 0; height: 0; overflow: hidden;" version="1.1" xmlns="http://www.w3.org/2000/svg" xmlns:xlink="http://www.w3.org/1999/xlink">
<defs>
<symbol id="burger-menu" viewBox="0 0 57 32">
<path fill="#39515e" style="fill: var(--color1, #39515e)" d="M1.684 0h53.102c0.93 0 1.684 0.754 1.684 1.684v2.279c0 0.93-0.754 1.684-1.684 1.684h-53.102c-0.93 0-1.684-0.754-1.684-1.684v-2.279c0-0.93 0.754-1.684 1.684-1.684z"></path>
<path fill="#39515e" style="fill: var(--color1, #39515e)" d="M1.684 13.176h53.102c0.93 0 1.684 0.754 1.684 1.684v2.279c0 0.93-0.754 1.684-1.684 1.684h-53.102c-0.93 0-1.684-0.754-1.684-1.684v-2.279c0-0.93 0.754-1.684 1.684-1.684z"></path>
<path fill="#39515e" style="fill: var(--color1, #39515e)" d="M1.684 26.353h36.574c0.93 0 1.684 0.754 1.684 1.684v2.279c0 0.93-0.754 1.684-1.684 1.684h-36.574c-0.93 0-1.684-0.754-1.684-1.684v-2.279c0-0.93 0.754-1.684 1.684-1.684z"></path>
</symbol>
<symbol id="close-btn" viewBox="0 0 24 24">
<path d="M5.293 6.707l5.293 5.293-5.293 5.293c-0.391 0.391-0.391 1.024 0 1.414s1.024 0.391 1.414 0l5.293-5.293 5.293 5.293c0.391 0.391 1.024 0.391 1.414 0s0.391-1.024 0-1.414l-5.293-5.293 5.293-5.293c0.391-0.391 0.391-1.024 0-1.414s-1.024-0.391-1.414 0l-5.293 5.293-5.293-5.293c-0.391-0.391-1.024-0.391-1.414 0s-0.391 1.024 0 1.414z"></path>
</symbol>
</defs>
</svg>
